<?xml version="1.0" encoding="UTF-8" standalone="no"?>
<svg
   width="81.52mm"
   height="44.33mm"
   viewBox="0 0 231.09 125.66"
   version="1.1"
   id="svg13"
   xml:space="preserve"
   xmlns="http://www.w3.org/2000/svg"
   xmlns:svg="http://www.w3.org/2000/svg"
   xmlns:rdf="http://www.w3.org/1999/02/22-rdf-syntax-ns#"
   xmlns:cc="http://creativecommons.org/ns#"
   xmlns:dc="http://purl.org/dc/elements/1.1/"><defs
     id="defs1"><style
       id="style1">
      .cls-1 {
        fill: #1d1d1b;
      }

      .cls-2 {
        fill: #878787;
      }

      .cls-3 {
        fill: none;
        stroke: #1d1d1b;
        stroke-width: 1.47px;
      }

      .cls-4 {
        fill: #e30613;
      }
    </style></defs><title
     id="title1">Logo_CA_SCHEUGROUP_</title><g
     style="clip-rule:evenodd;fill-rule:evenodd;stroke-linejoin:round;stroke-miterlimit:2"
     id="g13"
     transform="matrix(1.2289709,0,0,1.2289709,-222.47546,-117.05826)"><g
       id="g12"><path
         d="m 211.83,185.937 22.647,-22.647 h 11.011 l -22.648,22.647 z m 57.352,-57.353 22.648,-22.647 h 11.01 l -22.647,22.647 z"
         style="fill:#ed1c24"
         id="path1" /><path
         d="m 228.761,185.937 22.648,-22.647 h 33.068 l -22.647,22.647 z m 57.352,-57.353 22.648,-22.647 h 33.069 l -22.647,22.647 z"
         style="fill:#ed1c24"
         id="path2" /><path
         d="m 219.974,142.224 c 0,-7.753 4.596,-9.554 11.69,-9.554 h 9.116 c 10.603,0 12.835,2.203 12.946,8.861 l 0.009,0.558 h -8.817 l -0.058,-0.483 c -0.12,-0.988 -0.902,-1.445 -3.067,-1.445 h -8.453 c -3.686,0 -4.306,1.536 -4.306,4.435 v 2.681 c 0,3.414 0.62,4.436 3.888,4.436 h 8.277 c 3.093,0 3.748,-0.286 3.941,-1.894 l 0.059,-0.483 h 8.843 v 1.825 c 0,4.5 -1.785,8.042 -9.874,8.042 h -12.504 c -7.094,0 -11.69,-1.801 -11.69,-9.554 z"
         style="fill:#231f20;fill-rule:nonzero"
         id="path3" /><path
         d="m 181.086,150.754 h 8.85 l 0.084,0.447 c 0.22,1.168 0.8,1.337 2.721,1.337 h 9.501 c 0.829,0 1.545,-0.049 2.048,-0.278 0.424,-0.192 0.722,-0.519 0.722,-1.271 0,-0.855 -0.075,-1.18 -1.265,-1.426 -1.406,-0.291 -4.057,-0.328 -9.084,-0.328 -11.705,0 -13.542,-1.411 -13.542,-8.042 0,-4.766 0.627,-8.523 10.747,-8.523 h 10.828 c 9.038,0 10.291,3.088 10.327,7.652 l 0.005,0.553 h -8.829 l -0.079,-0.454 c -0.104,-0.6 -0.344,-1.085 -3.171,-1.085 h -8.592 c -1.717,0 -2.386,0.554 -2.386,1.376 0,0.887 0.113,1.174 1.082,1.389 1.198,0.267 3.43,0.28 7.624,0.262 11.966,-0.034 15.395,0.655 15.395,8.489 0,7.227 -2.835,8.351 -13.158,8.351 h -9.395 c -7.104,0 -10.433,-1.349 -10.433,-7.252 z"
         style="fill:#231f20;fill-rule:nonzero"
         id="path4" /><path
         d="m 260.394,132.945 h 8.852 v 8.868 h 15.249 v -8.868 h 8.851 v 25.983 h -8.851 v -9.418 h -15.249 v 9.418 h -8.852 z"
         style="fill:#231f20;fill-rule:nonzero"
         id="path5" /><path
         d="m 300.475,132.945 h 28.76 v 6.872 h -19.909 v 2.891 h 18.861 v 6.252 h -18.861 v 2.89 h 20.363 v 7.078 h -29.214 z"
         style="fill:#231f20;fill-rule:nonzero"
         id="path6" /><path
         d="m 336.05,132.945 h 8.851 v 14.916 c 0,2.874 0.921,3.852 3.782,3.852 h 7.685 c 2.861,0 3.782,-0.978 3.782,-3.852 v -14.916 h 8.851 v 16.566 c 0,6.55 -3.556,9.692 -10.922,9.692 h -11.107 c -7.365,0 -10.922,-3.142 -10.922,-9.692 z"
         style="fill:#231f20;fill-rule:nonzero"
         id="path7" /><path
         d="m 221.07,142.224 c 0,-6.821 3.717,-8.457 10.594,-8.457 h 9.116 c 9.984,0 11.65,1.869 11.835,7.225 h -6.764 c -0.459,-1.572 -2.135,-1.928 -4.058,-1.928 h -8.453 c -4.487,0 -5.403,2.244 -5.403,5.532 v 2.681 c 0,3.804 0.916,5.532 4.985,5.532 h 8.278 c 2.8,0 4.484,-0.206 4.95,-2.376 h 6.796 v 0.728 c 0,3.887 -1.288,6.945 -8.777,6.945 h -12.505 c -6.877,0 -10.594,-1.636 -10.594,-8.457 z"
         style="fill:#ffffff;fill-rule:nonzero"
         id="path8" /><path
         d="m 182.183,151.851 h 6.869 c 0.524,1.677 1.978,1.784 3.689,1.784 h 9.501 c 0.812,0 1.756,-0.037 2.501,-0.376 0.824,-0.374 1.366,-1.096 1.366,-2.27 0,-1.31 -0.38,-2.137 -2.141,-2.5 -1.545,-0.32 -4.344,-0.351 -9.306,-0.351 -11.627,0 -12.444,-1.339 -12.444,-6.945 0,-4.239 0.211,-7.426 9.65,-7.426 h 10.828 c 8.096,0 9.115,2.419 9.22,6.011 h -6.834 c -0.427,-1.186 -1.669,-1.539 -4.133,-1.539 h -8.592 c -1.776,0 -3.482,0.615 -3.482,2.473 0,1.278 0.359,2.108 1.94,2.46 1.351,0.301 3.747,0.305 7.866,0.288 12.135,-0.034 14.294,0.722 14.294,7.392 0,6.178 -1.775,7.254 -12.06,7.254 h -9.396 c -7.007,0 -9.336,-1.264 -9.336,-6.154 z"
         style="fill:#ffffff;fill-rule:nonzero"
         id="path9" /><path
         d="m 261.491,134.042 h 6.657 v 8.868 h 17.444 v -8.868 h 6.656 v 23.789 h -6.656 v -9.418 h -17.444 v 9.418 h -6.657 z"
         style="fill:#ffffff;fill-rule:nonzero"
         id="path10" /><path
         d="m 301.572,134.042 h 26.566 v 4.678 h -19.909 v 5.084 h 18.861 v 4.059 h -18.861 v 5.084 h 20.363 v 4.884 h -27.02 z"
         style="fill:#ffffff;fill-rule:nonzero"
         id="path11" /><path
         d="m 337.147,134.042 h 6.657 v 13.819 c 0,3.452 1.384,4.949 4.879,4.949 h 7.685 c 3.495,0 4.879,-1.497 4.879,-4.949 v -13.819 h 6.657 v 15.469 c 0,5.825 -2.939,8.595 -9.824,8.595 h -11.108 c -6.886,0 -9.825,-2.77 -9.825,-8.595 z"
         style="fill:#ffffff;fill-rule:nonzero"
         id="path12" /></g></g><metadata
     id="metadata13"><rdf:RDF><cc:Work
         rdf:about=""><dc:title>Logo_CA_SCHEUGROUP_</dc:title></cc:Work></rdf:RDF></metadata></svg>
