<svg viewBox="0 0 180 50" xmlns="http://www.w3.org/2000/svg">
  <g fill="#00A3E0">
    <path d="M15.5 12c-4.8 0-8.5 1.8-8.5 6.2 0 3.2 2.1 5 5.8 5.8l4.2 0.9c2.2 0.5 3.1 1.2 3.1 2.6 0 1.8-1.7 2.8-4.5 2.8-3.1 0-5-1.3-5.2-3.8H5c0.2 4.8 4 7.2 10.5 7.2 5.5 0 9.2-2.2 9.2-6.6 0-3.4-2.3-5.2-6.5-6l-4-0.8c-1.9-0.4-2.8-1.1-2.8-2.4 0-1.6 1.5-2.6 4-2.6 2.8 0 4.3 1.2 4.5 3.4h5.3C24.8 14 21.2 12 15.5 12z"/>
    <text x="30" y="32" font-family="Arial Black, Arial, sans-serif" font-size="26" font-weight="900">3Shape</text>
  </g>
</svg>
