<?xml version="1.0" encoding="UTF-8"?>
<svg id="Calque_1" data-name="Calque 1" xmlns="http://www.w3.org/2000/svg" version="1.1" xmlns:xlink="http://www.w3.org/1999/xlink" viewBox="0 0 494.2 283.2">
  <defs>
    <style>
      .cls-1 {
        fill: #e6007e;
      }

      .cls-1, .cls-2, .cls-3, .cls-4, .cls-5, .cls-6, .cls-7, .cls-8, .cls-9, .cls-10, .cls-11 {
        stroke-width: 0px;
      }

      .cls-2 {
        fill: url(#linear-gradient);
      }

      .cls-3 {
        fill: #0052a1;
      }

      .cls-4 {
        fill: url(#linear-gradient-5);
      }

      .cls-5 {
        fill: #009fe3;
      }

      .cls-6 {
        fill: url(#linear-gradient-2);
      }

      .cls-7 {
        fill: url(#linear-gradient-3);
      }

      .cls-8 {
        fill: #004b9c;
      }

      .cls-9 {
        fill: #0057a5;
      }

      .cls-10 {
        fill: #fff;
      }

      .cls-11 {
        fill: url(#linear-gradient-4);
      }
    </style>
    <linearGradient id="linear-gradient" x1="-9.1" y1="182.3" x2="505" y2="182.3" gradientTransform="translate(13.7 -2.9) rotate(2) scale(1 1) skewX(.9)" gradientUnits="userSpaceOnUse">
      <stop offset="0" stop-color="#312783"/>
      <stop offset=".6" stop-color="#009fe3"/>
      <stop offset="1" stop-color="#312783"/>
    </linearGradient>
    <linearGradient id="linear-gradient-2" x1="-10.4" y1="120.9" x2="492.2" y2="120.9" xlink:href="#linear-gradient"/>
    <linearGradient id="linear-gradient-3" x1="203.9" y1="23.2" x2="125.6" y2="112.1" gradientUnits="userSpaceOnUse">
      <stop offset="0" stop-color="#312783"/>
      <stop offset=".4" stop-color="#009fe3"/>
      <stop offset="1" stop-color="#312783"/>
    </linearGradient>
    <linearGradient id="linear-gradient-4" x1="330.5" y1="65.7" x2="207.1" y2="136" xlink:href="#linear-gradient-3"/>
    <linearGradient id="linear-gradient-5" x1="425.1" y1="61.1" x2="355.6" y2="139.1" xlink:href="#linear-gradient-3"/>
  </defs>
  <path class="cls-2" d="M13.6,213.5l25.4-143c.5-2.9,1.3-5.7,2.2-8.4l-1,.2c-15,3.5-28,21.9-29.4,41L.1,249.4c-1.4,19.2,9.1,34.3,23.9,33.8l286.4-10.2L31.7,249.5c-13.5-1.1-21.4-17.2-18.1-36Z"/>
  <path class="cls-6" d="M444.5,1.4l-182.4,30,183.9-9.6c27-3.3,45.7,14.5,41,39.9l-32.7,166.4c-2.2,11.5-8.6,21.6-17.4,29,24-5.2,43.9-24.7,45.6-47.4l11.6-173.3c2-25.9-20.6-41.5-49.6-35.1Z"/>
  <path class="cls-7" d="M85.6,48h87.4c9,0,16.2,7.3,16.2,16.2v87.4c0,9-7.3,16.2-16.2,16.2h-87.4c-9,0-16.2-7.3-16.2-16.2v-87.4c0-9,7.3-16.2,16.2-16.2Z"/>
  <path class="cls-11" d="M212.7,48h87.4c9,0,16.2,7.3,16.2,16.2v87.4c0,9-7.3,16.2-16.2,16.2h-87.4c-9,0-16.2-7.3-16.2-16.2v-87.4c0-9,7.3-16.2,16.2-16.2Z"/>
  <rect class="cls-4" x="323.5" y="48" width="119.8" height="119.8" rx="16.2" ry="16.2"/>
  <path class="cls-10" d="M250.1,61.3l-33,87.5c-1.6,4.4.6,9.2,4.9,10.9,4.4,1.6,9.2-.6,10.9-4.9,0,0,15.7-41.6,24.9-66.1,8.8,24.4,23.7,65.5,23.7,65.5,1.6,4.4,6.4,6.7,10.8,5.1,4.4-1.6,6.7-6.4,5.1-10.8l-31.5-87.1c-1.2-3.3-4.4-5.6-7.9-5.6-3.5,0-6.7,2.2-8,5.5Z"/>
  <rect class="cls-10" x="236.8" y="114.6" width="41.4" height="16.9"/>
  <path class="cls-10" d="M87.2,107.5c0,29.3,19.9,52.2,45.3,52.2s28.8-7.6,37.7-20.8c2.6-3.9,1.6-9.1-2.3-11.7-3.9-2.6-9.1-1.6-11.7,2.3-5.7,8.5-14.3,13.3-23.6,13.3-16.2,0-28.4-15.2-28.4-35.3s12.3-35.1,28.6-35.1,17.9,4.8,23.5,13.2c2.6,3.9,7.8,4.9,11.7,2.4,3.9-2.6,4.9-7.8,2.4-11.7-8.8-13.2-22.5-20.8-37.6-20.8-25.5,0-45.5,22.8-45.5,52Z"/>
  <path class="cls-10" d="M360.6,55.6c-4.7,0-8.5,3.8-8.5,8.5v87.1c0,4.7,3.8,8.5,8.5,8.5s8.5-3.8,8.5-8.5v-28.6h25.6c19.1,0,29.1-16.8,29.1-33.5s-10-33.5-29.1-33.5h-34.1ZM394.7,72.5c9.6,0,12.2,10.4,12.2,16.6s-2.6,16.6-12.2,16.6h-25.6v-33.1h25.6Z"/>
  <g>
    <path class="cls-8" d="M96.5,186.4c0,.6-.2,1.3-.6,2s-1,1.4-1.8,2.1-1.8,1.3-3.1,1.7c-1.3.4-2.7.7-4.4.7s-2.4,0-3.4-.3c-1-.2-2-.5-2.8-.9-.8-.4-1.6-1-2.3-1.6-.6-.6-1.2-1.3-1.6-2.1-.4-.8-.8-1.6-1-2.4-.2-.9-.3-1.8-.3-2.7,0-1.6.3-3,.8-4.2.6-1.2,1.4-2.3,2.4-3.2s2.3-1.6,3.7-2c1.4-.5,2.9-.7,4.5-.7s3.7.3,5.2.9c1.5.6,2.7,1.4,3.5,2.3.8.9,1.2,1.8,1.2,2.6s-.2.9-.6,1.2c-.4.3-.9.5-1.4.5s-1.1-.1-1.4-.4-.7-.7-1-1.2c-.6-1-1.4-1.7-2.2-2.2-.9-.5-1.9-.7-3.2-.7-2,0-3.6.6-4.8,1.8-1.2,1.2-1.8,3-1.8,5.2s.3,2.8.8,3.8c.5,1,1.3,1.8,2.2,2.3s2.1.7,3.4.7,2.6-.3,3.5-.8c1-.6,1.7-1.4,2.2-2.5.2-.5.5-.9.8-1.3.3-.3.8-.5,1.5-.5s1.1.2,1.5.5c.4.3.6.7.6,1.2Z"/>
    <path class="cls-5" d="M108.4,186.4h-5.6c0,.8.1,1.5.4,2.2.3.6.6,1.1,1,1.4.4.3.9.5,1.4.5s.7,0,.9-.2c.3-.1.6-.3.8-.5s.5-.4.7-.7c.2-.2.5-.6.9-1,.1-.2.4-.2.6-.2s.5.1.7.3c.2.2.3.5.3.9s-.1.7-.3,1.1-.5.9-.9,1.3-.9.7-1.5,1c-.6.3-1.3.4-2.1.4-1.8,0-3.3-.7-4.3-2-1-1.3-1.5-3.1-1.5-5.4s.1-2.1.4-3c.3-.9.6-1.7,1.1-2.4.5-.7,1.1-1.2,1.8-1.5.7-.4,1.5-.5,2.3-.5s2.1.3,2.9.9c.8.6,1.4,1.4,1.8,2.3.4.9.6,1.9.6,2.9s-.2,1.5-.6,1.8c-.4.3-1,.4-1.7.4ZM102.8,184.4h5.2c0-1.2-.3-2.2-.8-2.8-.5-.6-1.1-.9-1.8-.9s-1.3.3-1.8.9c-.5.6-.7,1.5-.8,2.8Z"/>
    <path class="cls-5" d="M116.2,180.2v.4c.5-.8,1.1-1.5,1.6-1.9.6-.4,1.3-.6,2.1-.6s1.4.2,2,.6c.6.4,1,1,1.3,1.8.2.4.3.9.4,1.4s0,1.2,0,2v6.7c0,.7-.1,1.3-.4,1.6s-.6.6-1,.6-.8-.2-1-.6-.4-.9-.4-1.6v-6c0-1.2-.1-2.1-.4-2.7-.3-.6-.8-.9-1.6-.9s-1,.2-1.4.6c-.4.4-.7.9-.9,1.6-.1.5-.2,1.5-.2,3v4.5c0,.7-.1,1.3-.4,1.7-.3.4-.6.6-1,.6s-.7-.2-1-.6-.4-.9-.4-1.6v-10.5c0-.7.1-1.2.4-1.5s.6-.5,1-.5.5,0,.7.2c.2.2.4.4.5.7.1.3.2.7.2,1.1Z"/>
    <path class="cls-5" d="M127.1,178.5h.3v-2.2c0-.6,0-1,0-1.4s0-.6.2-.9c.1-.2.3-.4.5-.6s.4-.2.7-.2.7.2,1,.5c.2.2.3.5.4.8s0,.8,0,1.4v2.5h1c.4,0,.7.1.9.4.2.2.3.6.3.9s-.2.8-.5,1c-.3.2-.7.3-1.3.3h-.5v6.7c0,.6,0,1,0,1.3,0,.3.1.6.3.7s.4.3.7.3.4,0,.7-.1.5-.1.7-.1c.2,0,.4.1.6.4s.3.5.3.9c0,.6-.3,1-.8,1.3s-1.2.5-2.2.5-1.6-.2-2-.6-.8-.9-.9-1.6c-.1-.7-.2-1.6-.2-2.7v-7h-.4c-.4,0-.7-.1-.9-.4s-.3-.6-.3-.9.1-.7.3-.9c.2-.2.6-.4,1-.4Z"/>
    <path class="cls-5" d="M137.8,187.7v3c0,.7-.1,1.3-.4,1.7-.3.4-.6.6-1,.6s-.7-.2-1-.6c-.3-.4-.4-.9-.4-1.6v-10.1c0-1.6.5-2.4,1.4-2.4s.8.2,1,.6c.2.4.3.9.3,1.7.3-.7.7-1.3,1.1-1.7.4-.4.8-.6,1.4-.6s1.2.2,1.7.6c.6.4.8.9.8,1.5s-.1.8-.4,1.1c-.2.3-.5.4-.8.4s-.4,0-.8-.2c-.4-.2-.8-.2-1.1-.2s-.8.1-1,.4c-.3.3-.5.7-.6,1.2-.1.5-.2,1.2-.3,2,0,.8,0,1.7,0,2.8Z"/>
    <path class="cls-5" d="M151.4,190.9c-.7.7-1.4,1.2-2,1.5-.6.3-1.4.5-2.2.5s-1.4-.2-1.9-.6c-.6-.4-1-.9-1.3-1.5-.3-.6-.4-1.3-.4-2s.2-1.8.7-2.5c.5-.7,1.2-1.2,2-1.4.2,0,.6-.2,1.3-.4.7-.2,1.3-.4,1.8-.5.5-.2,1.1-.3,1.7-.6,0-1-.2-1.7-.5-2.1-.3-.4-.8-.7-1.7-.7s-1.3.1-1.6.4c-.4.3-.7.6-.9,1.2s-.4.9-.6,1c-.1.2-.3.2-.7.2s-.6-.1-.8-.4c-.2-.3-.4-.6-.4-1,0-.6.2-1.3.5-1.9.4-.6.9-1.1,1.7-1.5s1.7-.6,2.8-.6,2.2.2,3,.6c.7.4,1.2,1,1.5,1.8.3.8.4,1.9.4,3.2s0,1.6,0,2.2c0,.6,0,1.3,0,2,0,.7,0,1.4.3,2.1.2.7.3,1.2.3,1.4,0,.4-.1.7-.4,1-.3.3-.6.5-.9.5s-.6-.2-.9-.5c-.3-.3-.6-.9-.9-1.5ZM151.2,185.6c-.4.2-1,.4-1.8.6-.8.2-1.3.4-1.7.5-.3.1-.6.3-.9.6-.3.3-.4.7-.4,1.2s.2,1,.5,1.4c.3.4.8.6,1.3.6s1.1-.2,1.6-.5.8-.7,1.1-1.2c.3-.5.4-1.5.4-2.7v-.5Z"/>
    <path class="cls-5" d="M157.4,190.7v-15.7c0-.7.1-1.3.4-1.6s.6-.6,1-.6.8.2,1,.6c.3.4.4.9.4,1.7v15.7c0,.7-.1,1.3-.4,1.7-.3.4-.6.6-1,.6s-.8-.2-1-.6-.4-.9-.4-1.6Z"/>
    <path class="cls-5" d="M171.5,186.4h-5.6c0,.8.1,1.5.4,2.2.3.6.6,1.1,1,1.4.4.3.9.5,1.4.5s.7,0,.9-.2c.3-.1.6-.3.8-.5s.5-.4.7-.7c.2-.2.5-.6.9-1,.1-.2.4-.2.6-.2s.5.1.7.3c.2.2.3.5.3.9s-.1.7-.3,1.1-.5.9-.9,1.3-.9.7-1.5,1c-.6.3-1.3.4-2.1.4-1.8,0-3.3-.7-4.3-2-1-1.3-1.5-3.1-1.5-5.4s.1-2.1.4-3c.3-.9.6-1.7,1.1-2.4.5-.7,1.1-1.2,1.8-1.5.7-.4,1.5-.5,2.3-.5s2.1.3,2.9.9c.8.6,1.4,1.4,1.8,2.3.4.9.6,1.9.6,2.9s-.2,1.5-.6,1.8c-.4.3-1,.4-1.7.4ZM166,184.4h5.2c0-1.2-.3-2.2-.8-2.8-.5-.6-1.1-.9-1.8-.9s-1.3.3-1.8.9c-.5.6-.7,1.5-.8,2.8Z"/>
    <path class="cls-5" d="M190.3,190.8v-.4c-.4.6-.8,1-1.1,1.4s-.8.6-1.2.8c-.4.2-.9.3-1.4.3s-1.3-.2-1.9-.6c-.6-.4-1.1-.9-1.5-1.6-.4-.7-.7-1.5-1-2.4-.2-.9-.3-1.9-.3-3,0-2.3.4-4,1.3-5.3s2-1.9,3.4-1.9,1.5.2,2.1.5c.6.4,1.1.9,1.7,1.7v-5.4c0-.7.1-1.3.4-1.7s.6-.6,1-.6.8.2,1,.5.4.9.4,1.5v16c0,.7-.1,1.2-.4,1.6-.3.3-.6.5-1,.5s-.7-.2-1-.5-.4-.9-.4-1.5ZM184.7,185.5c0,1,.1,1.8.4,2.5s.6,1.2,1,1.6c.4.4.9.5,1.4.5s1-.2,1.4-.5.7-.8,1-1.5c.2-.7.4-1.5.4-2.6s-.1-1.8-.4-2.5c-.2-.7-.6-1.2-1-1.6-.4-.4-.9-.6-1.4-.6s-1,.2-1.4.6c-.4.4-.7.9-1,1.6-.2.7-.3,1.5-.3,2.5Z"/>
    <path class="cls-5" d="M198.5,180h-2.2l-.6-3.7v-3.3h3.2v3.3l-.5,3.7Z"/>
    <path class="cls-9" d="M218.3,190.4l-1.1-2.4h-9.7l-1.1,2.5c-.4,1-.8,1.6-1.1,2-.3.3-.8.5-1.6.5s-1.1-.2-1.6-.5c-.5-.4-.7-.8-.7-1.2s0-.5.2-.8c.1-.3.3-.7.5-1.2l6.1-12.6c.2-.4.4-.8.6-1.3.2-.5.5-.9.8-1.3.3-.3.6-.6,1.1-.8.5-.2,1-.3,1.7-.3s1.2.1,1.7.3.8.5,1.1.8c.3.3.5.7.7,1.1.2.4.4.9.7,1.5l6.3,12.6c.5,1,.7,1.7.7,2.1s-.2.9-.7,1.2-1,.6-1.7.6-.7,0-1-.2-.5-.3-.7-.5c-.2-.2-.4-.5-.6-.9-.2-.4-.4-.7-.5-1ZM208.7,185h7.2l-3.6-8-3.5,8Z"/>
    <path class="cls-5" d="M236.9,188.4c0,.5-.1.9-.3,1.4s-.5,1-1,1.5c-.4.5-1,.8-1.6,1.1-.7.3-1.4.4-2.2.4-1.8,0-3.1-.7-4.1-2-1-1.3-1.5-3.1-1.5-5.3s.2-2.8.7-3.9,1.1-2,2-2.7c.9-.6,1.9-.9,3.1-.9s1.4.1,2,.4c.6.3,1.1.6,1.6,1.1.4.4.8.9,1,1.4.2.5.3.9.3,1.4s-.1.8-.4,1.1c-.3.3-.6.5-.9.5s-.4,0-.6-.2c-.2-.2-.3-.4-.5-.8-.3-.7-.7-1.2-1.1-1.5-.4-.3-.9-.5-1.4-.5-.8,0-1.5.4-2,1.3s-.8,2-.8,3.4,0,1.3.2,1.9.3,1.1.6,1.5c.3.4.6.7.9.9.4.2.7.3,1.2.3s1.1-.2,1.5-.5c.4-.3.8-.8,1.1-1.5.2-.4.4-.7.6-1,.2-.2.4-.3.7-.3s.6.2.9.5c.2.3.3.7.3,1.1Z"/>
    <path class="cls-5" d="M242,175v5.4c.4-.5.7-1,1.1-1.3.3-.3.7-.5,1.1-.7.4-.2.9-.2,1.3-.2.7,0,1.4.2,1.9.6.6.4,1,1,1.3,1.7.2.4.3.9.4,1.5,0,.5.1,1.2.1,1.9v6.9c0,.7-.1,1.3-.4,1.6s-.6.6-1,.6c-.9,0-1.4-.7-1.4-2.2v-6.1c0-1.2-.1-2.1-.4-2.7-.3-.6-.8-.9-1.5-.9s-1,.2-1.4.6c-.4.4-.7.9-.9,1.5-.2.5-.2,1.5-.2,2.9v4.8c0,.7-.1,1.3-.4,1.6-.3.4-.6.6-1.1.6-.9,0-1.4-.7-1.4-2.2v-15.7c0-.7.1-1.3.4-1.7.2-.4.6-.6,1-.6s.8.2,1.1.6c.3.4.4.9.4,1.6Z"/>
    <path class="cls-5" d="M259.8,190.9c-.7.7-1.4,1.2-2,1.5-.6.3-1.4.5-2.2.5s-1.4-.2-1.9-.6c-.6-.4-1-.9-1.3-1.5-.3-.6-.4-1.3-.4-2s.2-1.8.7-2.5c.5-.7,1.2-1.2,2-1.4.2,0,.6-.2,1.3-.4.7-.2,1.3-.4,1.8-.5.5-.2,1.1-.3,1.7-.6,0-1-.2-1.7-.5-2.1-.3-.4-.8-.7-1.7-.7s-1.3.1-1.6.4c-.4.3-.7.6-.9,1.2-.3.5-.4.9-.6,1-.1.2-.3.2-.7.2s-.6-.1-.8-.4c-.2-.3-.3-.6-.3-1,0-.6.2-1.3.5-1.9.4-.6.9-1.1,1.7-1.5.8-.4,1.7-.6,2.8-.6s2.2.2,3,.6c.7.4,1.2,1,1.5,1.8.3.8.4,1.9.4,3.2s0,1.6,0,2.2c0,.6,0,1.3,0,2,0,.7,0,1.4.3,2.1s.3,1.2.3,1.4c0,.4-.1.7-.4,1s-.6.5-.9.5-.6-.2-.9-.5c-.3-.3-.6-.9-.9-1.5ZM259.6,185.6c-.4.2-1,.4-1.8.6-.8.2-1.3.4-1.7.5-.3.1-.6.3-.9.6-.3.3-.4.7-.4,1.2s.2,1,.5,1.4c.3.4.8.6,1.3.6s1.1-.2,1.6-.5c.5-.3.8-.7,1-1.2.3-.5.4-1.5.4-2.7v-.5Z"/>
    <path class="cls-5" d="M265.4,178.5h.3v-2.2c0-.6,0-1,0-1.4,0-.3,0-.6.2-.9.1-.2.3-.4.5-.6s.4-.2.7-.2.7.2,1,.5c.2.2.3.5.4.8,0,.3,0,.8,0,1.4v2.5h1c.4,0,.7.1.9.4.2.2.3.6.3.9s-.2.8-.5,1c-.3.2-.7.3-1.3.3h-.5v6.7c0,.6,0,1,0,1.3,0,.3.1.6.3.7.1.2.4.3.7.3s.4,0,.7-.1c.3,0,.5-.1.7-.1.2,0,.4.1.6.4s.3.5.3.9c0,.6-.3,1-.8,1.3-.5.3-1.2.5-2.2.5s-1.6-.2-2-.6-.8-.9-.9-1.6c-.1-.7-.2-1.6-.2-2.7v-7h-.4c-.4,0-.7-.1-.9-.4s-.3-.6-.3-.9.1-.7.3-.9c.2-.2.6-.4,1-.4Z"/>
    <path class="cls-5" d="M286.8,190.8v-.4c-.4.6-.8,1-1.1,1.4s-.8.6-1.2.8-.9.3-1.4.3-1.3-.2-1.9-.6c-.6-.4-1.1-.9-1.5-1.6-.4-.7-.7-1.5-1-2.4-.2-.9-.3-1.9-.3-3,0-2.3.4-4,1.3-5.3s2-1.9,3.4-1.9,1.5.2,2.1.5c.6.4,1.1.9,1.7,1.7v-5.4c0-.7.1-1.3.3-1.7s.6-.6,1-.6.8.2,1,.5.3.9.3,1.5v16c0,.7-.1,1.2-.4,1.6-.3.3-.6.5-1,.5s-.7-.2-1-.5c-.3-.4-.4-.9-.4-1.5ZM281.2,185.5c0,1,.1,1.8.4,2.5s.6,1.2,1,1.6c.4.4.9.5,1.4.5s1-.2,1.4-.5.7-.8,1-1.5c.2-.7.4-1.5.4-2.6s-.1-1.8-.4-2.5c-.2-.7-.6-1.2-1-1.6-.4-.4-.9-.6-1.4-.6s-1,.2-1.4.6c-.4.4-.7.9-1,1.6s-.3,1.5-.3,2.5Z"/>
    <path class="cls-5" d="M300.2,190.9v-.5c-.3.5-.7,1-1.1,1.4-.4.4-.8.6-1.2.8-.4.2-1,.3-1.5.3s-1.3-.2-1.9-.5-1-.9-1.3-1.5c-.4-.8-.5-1.9-.5-3.3v-7.2c0-.7.1-1.3.4-1.6.3-.4.6-.5,1-.5s.8.2,1,.5.4.9.4,1.6v5.8c0,.8,0,1.5.2,2.1s.3,1,.6,1.3c.3.3.7.5,1.2.5s.9-.2,1.4-.5.7-.8.9-1.4c.2-.5.2-1.6.2-3.4v-4.4c0-.7.1-1.3.4-1.6s.6-.5,1-.5.8.2,1,.5c.3.4.4.9.4,1.6v10.5c0,.7-.1,1.2-.4,1.6-.2.3-.6.5-1,.5s-.7-.2-1-.5c-.3-.4-.4-.9-.4-1.5Z"/>
    <path class="cls-3" d="M322.4,185h-4.4v5.5c0,.8-.2,1.4-.7,1.8-.5.4-1,.6-1.7.6s-1.3-.2-1.8-.6c-.4-.4-.7-1-.7-1.8v-15c0-.9.2-1.5.7-1.9s1.3-.6,2.3-.6h6.2c1.8,0,3.3.1,4.3.3,1,.2,1.8.6,2.5,1.1.7.5,1.3,1.1,1.6,1.9.4.7.6,1.6.6,2.5,0,2-.8,3.5-2.3,4.5-1.5,1-3.7,1.5-6.7,1.5ZM321.2,176.1h-3.3v6h3.3c1.1,0,2.1,0,2.9-.3.8-.2,1.4-.5,1.8-1,.4-.4.6-1,.6-1.7s-.3-1.6-.9-2.1c-.7-.6-2.1-.9-4.3-.9Z"/>
    <path class="cls-5" d="M337.7,187.7v3c0,.7-.1,1.3-.4,1.7-.3.4-.6.6-1,.6s-.7-.2-1-.6-.4-.9-.4-1.6v-10.1c0-1.6.5-2.4,1.4-2.4s.8.2,1,.6c.2.4.3.9.3,1.7.3-.7.7-1.3,1-1.7.4-.4.8-.6,1.4-.6s1.2.2,1.7.6c.6.4.8.9.8,1.5s-.1.8-.4,1.1c-.2.3-.5.4-.8.4s-.4,0-.8-.2-.8-.2-1.1-.2-.8.1-1,.4c-.3.3-.5.7-.6,1.2-.1.5-.2,1.2-.3,2,0,.8,0,1.7,0,2.8Z"/>
    <path class="cls-5" d="M354.6,185.5c0,1.1-.1,2.1-.4,3s-.6,1.7-1.1,2.4c-.5.7-1.1,1.2-1.8,1.5-.7.3-1.5.5-2.4.5s-1.6-.2-2.3-.5c-.7-.4-1.3-.9-1.8-1.5-.5-.7-.9-1.4-1.1-2.3-.3-.9-.4-1.9-.4-3s.1-2.1.4-3c.3-.9.6-1.7,1.1-2.3.5-.6,1.1-1.1,1.8-1.5.7-.3,1.5-.5,2.3-.5s1.6.2,2.4.5c.7.4,1.3.9,1.8,1.5.5.7.9,1.4,1.1,2.3.3.9.4,1.9.4,3ZM351.7,185.5c0-1.5-.3-2.6-.8-3.5-.5-.8-1.2-1.2-2.1-1.2s-1,.2-1.5.6-.8.9-1,1.6c-.2.7-.3,1.6-.3,2.5s.1,1.8.3,2.5c.2.7.5,1.3,1,1.6.4.4.9.6,1.5.6.9,0,1.6-.4,2.1-1.2.5-.8.8-2,.8-3.4Z"/>
    <path class="cls-5" d="M357.4,178.5h.3v-2.2c0-.6,0-1,0-1.4,0-.3,0-.6.2-.9.1-.2.3-.4.5-.6s.4-.2.7-.2.7.2,1,.5c.2.2.3.5.4.8,0,.3,0,.8,0,1.4v2.5h1c.4,0,.7.1.9.4.2.2.3.6.3.9s-.2.8-.5,1c-.3.2-.7.3-1.3.3h-.5v6.7c0,.6,0,1,0,1.3,0,.3.1.6.3.7s.4.3.7.3.4,0,.7-.1c.3,0,.5-.1.7-.1.2,0,.4.1.6.4s.3.5.3.9c0,.6-.3,1-.8,1.3-.5.3-1.2.5-2.2.5s-1.6-.2-2-.6-.8-.9-.9-1.6c-.1-.7-.2-1.6-.2-2.7v-7h-.4c-.4,0-.7-.1-.9-.4s-.3-.6-.3-.9.1-.7.3-.9c.2-.2.6-.4,1-.4Z"/>
    <path class="cls-5" d="M368,175v5.4c.4-.5.7-1,1.1-1.3.3-.3.7-.5,1.1-.7.4-.2.9-.2,1.3-.2.7,0,1.4.2,1.9.6.6.4,1,1,1.3,1.7.2.4.3.9.4,1.5s.1,1.2.1,1.9v6.9c0,.7-.1,1.3-.4,1.6-.3.4-.6.6-1,.6-.9,0-1.4-.7-1.4-2.2v-6.1c0-1.2-.1-2.1-.4-2.7-.3-.6-.8-.9-1.5-.9s-1,.2-1.4.6c-.4.4-.7.9-.9,1.5-.2.5-.2,1.5-.2,2.9v4.8c0,.7-.1,1.3-.4,1.6-.3.4-.6.6-1.1.6-.9,0-1.4-.7-1.4-2.2v-15.7c0-.7.1-1.3.4-1.7.2-.4.6-.6,1-.6s.8.2,1.1.6c.3.4.4.9.4,1.6Z"/>
    <path class="cls-5" d="M386.6,186.4h-5.6c0,.8.1,1.5.4,2.2.3.6.6,1.1,1,1.4.4.3.9.5,1.4.5s.7,0,.9-.2c.3-.1.6-.3.8-.5s.5-.4.7-.7.5-.6.9-1c.1-.2.4-.2.6-.2s.5.1.7.3c.2.2.3.5.3.9s-.1.7-.3,1.1-.5.9-.9,1.3c-.4.4-.9.7-1.5,1-.6.3-1.3.4-2.1.4-1.8,0-3.3-.7-4.3-2-1-1.3-1.5-3.1-1.5-5.4s.1-2.1.4-3c.3-.9.6-1.7,1.1-2.4.5-.7,1.1-1.2,1.8-1.5.7-.4,1.5-.5,2.3-.5s2.1.3,2.9.9c.8.6,1.4,1.4,1.8,2.3.4.9.6,1.9.6,2.9s-.2,1.5-.6,1.8-1,.4-1.7.4ZM381,184.4h5.2c0-1.2-.3-2.2-.8-2.8-.5-.6-1.1-.9-1.8-.9s-1.3.3-1.8.9-.7,1.5-.8,2.8ZM383.9,173h1.4c.4,0,.5,0,.5.2s-.2.4-.6.9c-.4.5-.8,1-1.2,1.4-.4.5-.7.7-.8.8-.4.3-.8.4-1.3.4s-.4-.1-.4-.3,0-.4.3-.8l.5-1.1c.3-.6.5-1.1.7-1.2.2-.2.5-.3.9-.3Z"/>
    <path class="cls-5" d="M400.9,188.2c0,1-.2,1.9-.6,2.6s-.9,1.3-1.7,1.6c-.7.4-1.7.6-2.7.6s-1.9-.2-2.6-.6-1.3-.9-1.6-1.5c-.3-.6-.5-1.2-.5-1.8s.1-.7.3-1,.5-.4.8-.4.5,0,.7.3c.2.2.3.4.5.8.3.6.6,1.1,1,1.4.4.3,1,.5,1.7.5s1-.2,1.4-.5c.4-.3.5-.7.5-1.1,0-.6-.2-1.1-.6-1.4-.4-.3-1-.6-1.9-.8-1-.3-1.8-.6-2.4-1-.6-.3-1.1-.8-1.5-1.3s-.6-1.2-.6-2.1.2-1.4.5-2.1c.3-.6.8-1.2,1.5-1.5.7-.4,1.5-.6,2.4-.6s1.4,0,2,.3c.6.2,1.1.5,1.5.8.4.3.7.7.9,1.1.2.4.3.8.3,1.2s-.1.8-.3,1c-.2.3-.5.4-.9.4s-.5-.1-.7-.3c-.2-.2-.4-.5-.7-1-.2-.4-.5-.6-.8-.9-.3-.2-.7-.3-1.2-.3s-.9.1-1.3.4c-.3.3-.5.6-.5,1s.1.7.4.9c.2.2.6.4,1,.6.4.2,1,.4,1.8.6.9.3,1.6.6,2.2,1s1,.8,1.3,1.3c.3.5.4,1.1.4,1.8Z"/>
    <path class="cls-5" d="M405.2,176.5c-.4,0-.7-.2-1-.5-.3-.3-.4-.7-.4-1.3s.1-.9.4-1.3.6-.5,1-.5.7.2,1,.5c.3.3.4.7.4,1.3s-.1,1-.4,1.3c-.3.3-.6.5-1,.5ZM406.6,180.2v10.5c0,.7-.1,1.3-.4,1.6-.3.4-.6.6-1,.6s-.8-.2-1-.6c-.3-.4-.4-.9-.4-1.6v-10.4c0-.7.1-1.3.4-1.6.3-.4.6-.5,1-.5s.8.2,1,.5c.3.4.4.9.4,1.5Z"/>
    <path class="cls-5" d="M419.2,188.2c0,1-.2,1.9-.6,2.6s-.9,1.3-1.7,1.6c-.7.4-1.7.6-2.7.6s-1.9-.2-2.6-.6-1.3-.9-1.6-1.5c-.3-.6-.5-1.2-.5-1.8s.1-.7.3-1,.5-.4.8-.4.5,0,.7.3c.2.2.3.4.5.8.3.6.6,1.1,1,1.4.4.3,1,.5,1.7.5s1-.2,1.4-.5c.4-.3.5-.7.5-1.1,0-.6-.2-1.1-.6-1.4-.4-.3-1-.6-1.9-.8-1-.3-1.8-.6-2.4-1-.6-.3-1.1-.8-1.5-1.3s-.6-1.2-.6-2.1.2-1.4.5-2.1c.3-.6.8-1.2,1.5-1.5.7-.4,1.5-.6,2.4-.6s1.4,0,2,.3c.6.2,1.1.5,1.5.8.4.3.7.7.9,1.1.2.4.3.8.3,1.2s-.1.8-.3,1c-.2.3-.5.4-.9.4s-.5-.1-.7-.3c-.2-.2-.4-.5-.7-1-.2-.4-.5-.6-.8-.9-.3-.2-.7-.3-1.2-.3s-.9.1-1.3.4c-.3.3-.5.6-.5,1s.1.7.4.9c.2.2.6.4,1,.6.4.2,1,.4,1.8.6.9.3,1.6.6,2.2,1s1,.8,1.3,1.3c.3.5.4,1.1.4,1.8Z"/>
    <path class="cls-5" d="M422.2,178.5h.3v-2.2c0-.6,0-1,0-1.4,0-.3,0-.6.2-.9.1-.2.3-.4.5-.6s.4-.2.7-.2.7.2,1,.5c.2.2.3.5.4.8,0,.3,0,.8,0,1.4v2.5h1c.4,0,.7.1.9.4.2.2.3.6.3.9s-.2.8-.5,1c-.3.2-.7.3-1.3.3h-.5v6.7c0,.6,0,1,0,1.3,0,.3.1.6.3.7s.4.3.7.3.4,0,.7-.1c.3,0,.5-.1.7-.1.2,0,.4.1.6.4s.3.5.3.9c0,.6-.3,1-.8,1.3-.5.3-1.2.5-2.2.5s-1.6-.2-2-.6-.8-.9-.9-1.6c-.1-.7-.2-1.6-.2-2.7v-7h-.4c-.4,0-.7-.1-.9-.4s-.3-.6-.3-.9.1-.7.3-.9c.2-.2.6-.4,1-.4Z"/>
    <path class="cls-5" d="M438,186.4h-5.6c0,.8.1,1.5.4,2.2.3.6.6,1.1,1,1.4.4.3.9.5,1.4.5s.7,0,.9-.2c.3-.1.6-.3.8-.5s.5-.4.7-.7.5-.6.9-1c.1-.2.4-.2.6-.2s.5.1.7.3c.2.2.3.5.3.9s-.1.7-.3,1.1-.5.9-.9,1.3c-.4.4-.9.7-1.5,1-.6.3-1.3.4-2.1.4-1.8,0-3.3-.7-4.3-2-1-1.3-1.5-3.1-1.5-5.4s.1-2.1.4-3c.3-.9.6-1.7,1.1-2.4.5-.7,1.1-1.2,1.8-1.5.7-.4,1.5-.5,2.3-.5s2.1.3,2.9.9c.8.6,1.4,1.4,1.8,2.3.4.9.6,1.9.6,2.9s-.2,1.5-.6,1.8-1,.4-1.7.4ZM432.4,184.4h5.2c0-1.2-.3-2.2-.8-2.8-.5-.6-1.1-.9-1.8-.9s-1.3.3-1.8.9-.7,1.5-.8,2.8Z"/>
  </g>
  <polygon class="cls-1" points="78.8 199.9 436.7 199.9 425.7 243.8 67.9 243.8 78.8 199.9"/>
  <g>
    <path class="cls-10" d="M139.4,239.1l8.5-34.9h11c3.9,0,6.9.7,8.8,2.2s2.9,3.7,2.9,6.7-.1,2.2-.4,3.8c-.2,1.6-.6,3.4-1,5.4-.6,2.9-1.2,5.2-1.8,7s-1.2,3.2-1.9,4.3c-1.2,1.9-2.7,3.3-4.5,4.2-1.8.9-4,1.3-6.7,1.3h-15ZM148.1,234.1h3.9c1.9,0,3.5-.3,4.6-.8s1.9-1.5,2.5-2.8c.3-.8.7-1.9,1.1-3.4.4-1.5.9-3.3,1.4-5.5.5-2.3.9-4.1,1.1-5.3.2-1.3.3-2.2.3-2.9,0-1.5-.5-2.5-1.4-3.2-.9-.6-2.4-1-4.5-1h-3l-6,24.8Z"/>
    <path class="cls-10" d="M171.3,239.1l8.5-34.9h19.8l-1.3,5.6h-12.5l-2.1,8.5h12.2l-1.3,5.4h-12.2l-2.4,9.8h13.3l-1.3,5.6h-20.7Z"/>
    <path class="cls-10" d="M205.2,239.1h-7.4l8.5-34.9h8.1l3.8,19.2c.2.8.3,1.8.4,3,.1,1.2.2,2.5.2,4h.3c.1-1.6.3-3.1.4-4.5.2-1.4.4-2.5.6-3.4l3.9-18.2h7.4l-8.4,34.9h-8.4l-3.4-19.8c-.2-1.2-.4-2.3-.5-3.5-.1-1.2-.2-2.3-.2-3.5h-.4c0,1.2-.2,2.5-.3,3.8s-.4,2.7-.7,4.1l-4.1,18.8Z"/>
    <path class="cls-10" d="M242.9,239.1h-7.5l7.2-29.5h-8.9l1.3-5.4h24.6l-1.4,5.4h-8.2l-7.2,29.5Z"/>
    <path class="cls-10" d="M261.3,239.1h-7.8l17.1-34.9h9.7l.9,34.9h-7.4v-9h-8.4l-4.1,9ZM267.6,225.1h6.2l.6-16.8-6.8,16.8Z"/>
    <path class="cls-10" d="M292.1,239.1h-7.7l8.5-34.9h7.7l-8.5,34.9Z"/>
    <path class="cls-10" d="M306.8,239.1h-7.5l8.5-34.9h10.3c4.7,0,8.1.7,10,2,2,1.3,2.9,3.5,2.9,6.7s-.8,4.5-2.3,6.2c-1.5,1.7-3.5,2.7-6,3,1.4.3,2.4.8,3.1,1.7.7.8,1,2,1,3.5s0,.6,0,1c0,.4-.1.9-.3,1.6l-.9,4.6c0,.3,0,.5-.1.8,0,.3,0,.6,0,1s0,.9.2,1.3c.1.4.3,1,.6,1.6h-8.1c-.1-.3-.2-.6-.3-1,0-.4-.1-.8-.1-1.3s0-.9,0-1.4c0-.5.1-1,.2-1.6l.8-4.1c0-.4.1-.7.2-1.2,0-.4,0-.8,0-1.3,0-1.3-.5-2.2-1.4-2.7-1-.5-2.6-.8-5-.8s-.8,0-1.1,0c-.3,0-.6,0-.9,0l-3.8,15.3ZM311.5,219h3.8c2.8,0,4.7-.5,6-1.5,1.2-1,1.8-2.6,1.8-4.8s-.4-2.3-1.3-2.9c-.8-.6-2.3-.9-4.2-.9h-3.7l-2.4,10.1Z"/>
    <path class="cls-10" d="M329.8,239.1l8.5-34.9h19.8l-1.3,5.6h-12.5l-2.1,8.5h12.2l-1.3,5.4h-12.2l-2.4,9.8h13.3l-1.3,5.6h-20.7Z"/>
  </g>
  <metadata>
    <sfw xmlns="http://ns.adobe.com/SaveForWeb/1.0/">
      <slices/>
      <sliceSourceBounds x="48.37" y="258.24" width="494.16" height="283.2" bottomLeftOrigin="true"/>
    </sfw>
  </metadata>
</svg>